<svg xmlns="http://www.w3.org/2000/svg" width="24" height="24" viewBox="0 0 24 24">
    <g fill="#FFF" fill-rule="nonzero">
        <path d="M8.737 4.203h1.895v12.743H8.737z"/>
        <path d="M9.503 17.71l-4.394 2.488a1.421 1.421 0 0 1-2.122-1.236V7.719c0-.48.244-.93.648-1.192L8.777 3.19a1.421 1.421 0 0 1 1.578.02l4.557 3.13 4.952-2.922a1.421 1.421 0 0 1 2.143 1.224v11.681c0 .498-.26.959-.685 1.216l-5.693 3.445a1.421 1.421 0 0 1-1.554-.054l-4.572-3.22zM4.882 7.977v10.172l3.948-2.235a1.421 1.421 0 0 1 1.518.075l4.564 3.214 5.2-3.147V5.471l-4.497 2.654c-.476.28-1.072.26-1.527-.053l-4.545-3.12-4.661 3.025z"/>
        <path d="M14.421 7.762h1.895v12.743H14.42z"/>
    </g>
</svg>
