<svg xmlns="http://www.w3.org/2000/svg" xmlns:xlink="http://www.w3.org/1999/xlink" width="40" height="40" viewBox="0 0 40 40">
    <defs>
        <circle id="b" cx="15" cy="15" r="15"/>
        <filter id="a" width="166.7%" height="166.7%" x="-33.3%" y="-23.3%" filterUnits="objectBoundingBox">
            <feMorphology in="SourceAlpha" operator="dilate" radius="1" result="shadowSpreadOuter1"/>
            <feOffset dy="3" in="shadowSpreadOuter1" result="shadowOffsetOuter1"/>
            <feGaussianBlur in="shadowOffsetOuter1" result="shadowBlurOuter1" stdDeviation="2.5"/>
            <feComposite in="shadowBlurOuter1" in2="SourceAlpha" operator="out" result="shadowBlurOuter1"/>
            <feColorMatrix in="shadowBlurOuter1" values="0 0 0 0 0 0 0 0 0 0 0 0 0 0 0 0 0 0 0.2 0"/>
        </filter>
    </defs>
    <g fill="none" fill-rule="evenodd">
        <g transform="translate(5 5)">
            <use fill="#000" filter="url(#a)" xlink:href="#b"/>
            <use fill="#1974DF" stroke="#FFF" stroke-width="2" xlink:href="#b"/>
        </g>
        <g fill="#FFF">
            <path d="M23.438 24.282l-.707-.411-2.018.333 2.688 2.201zM16.61 23.926l.552-.412 2.174.334-2.689 2.201z"/>
            <path fill-rule="nonzero" d="M17.375 13h5.368a3 3 0 0 1 3 3v8.368H14.375V16a3 3 0 0 1 3-3zm.592 2.28c-.725 0-1.312.502-1.312 1.122v1.755c0 .62.587 1.123 1.312 1.123h4.184c.725 0 1.313-.503 1.313-1.123v-1.755c0-.62-.588-1.122-1.313-1.122h-4.184zm-.375 7.154a.967.967 0 1 0 0-1.934.967.967 0 0 0 0 1.934zm4.936.001a.967.967 0 1 0 0-1.935.967.967 0 0 0 0 1.935z"/>
            <path fill-rule="nonzero" d="M19.497 14.875h1.125v5.25h-1.125z"/>
        </g>
    </g>
</svg>
